<?xml version="1.0" standalone="no"?>
<!DOCTYPE svg PUBLIC "-//W3C//DTD SVG 20010904//EN"
 "http://www.w3.org/TR/2001/REC-SVG-20010904/DTD/svg10.dtd">
<svg version="1.0" xmlns="http://www.w3.org/2000/svg"
 width="1280.000000pt" height="1280.000000pt" viewBox="0 0 1280.000000 1280.000000"
 preserveAspectRatio="xMidYMid meet">
<metadata>
Created by potrace 1.15, written by Peter Selinger 2001-2017
</metadata>
<g transform="translate(0.000000,1280.000000) scale(0.100000,-0.100000)"
fill="#000000" stroke="none">
<path d="M7345 12794 c-605 -44 -1026 -130 -1512 -305 -715 -259 -1349 -664
-1898 -1213 -772 -772 -1259 -1705 -1445 -2766 -60 -342 -85 -831 -61 -1183
53 -783 269 -1501 662 -2202 101 -181 113 -239 69 -325 -7 -14 -643 -657
-1414 -1430 -1060 -1063 -1416 -1425 -1460 -1487 -124 -176 -198 -333 -248
-523 -28 -105 -31 -129 -31 -275 -1 -181 12 -256 67 -392 50 -122 132 -238
257 -362 169 -169 311 -254 506 -303 127 -32 337 -32 483 0 191 43 376 128
565 260 60 42 436 411 1490 1463 1151 1148 1417 1409 1449 1419 21 7 64 10 95
8 49 -3 78 -15 202 -85 617 -346 1234 -551 1919 -637 459 -58 1035 -44 1491
38 1438 258 2690 1107 3480 2361 686 1088 939 2433 699 3715 -258 1378 -1059
2587 -2230 3365 -706 469 -1480 745 -2360 840 -136 15 -660 28 -775 19z m775
-1383 c849 -118 1600 -490 2200 -1091 567 -567 940 -1288 1069 -2065 43 -261
46 -304 46 -650 0 -298 -3 -359 -23 -499 -120 -846 -473 -1574 -1052 -2170
-1166 -1201 -2973 -1505 -4474 -755 -240 120 -461 262 -678 434 -134 107 -386
350 -507 490 -416 483 -710 1073 -841 1693 -147 693 -106 1394 120 2057 459
1345 1637 2329 3047 2545 220 34 309 39 628 35 250 -2 340 -7 465 -24z"/>
<path d="M7430 10471 c-367 -40 -713 -205 -974 -467 -128 -127 -219 -254 -301
-419 -99 -200 -143 -352 -166 -575 -26 -269 32 -410 204 -495 111 -54 193 -69
397 -69 204 0 286 15 397 69 86 43 153 112 182 191 12 31 25 100 30 159 17
200 113 329 281 379 78 23 222 21 301 -4 170 -53 277 -211 267 -390 -8 -143
-83 -260 -383 -605 -385 -442 -541 -711 -617 -1069 -29 -139 -32 -408 -5 -476
62 -153 195 -232 437 -261 191 -22 383 2 502 62 122 62 189 158 253 364 74
237 142 345 440 690 261 303 396 511 492 758 108 282 131 626 59 922 -152 626
-641 1092 -1272 1215 -122 24 -396 34 -524 21z"/>
<path d="M7290 6031 c-91 -29 -171 -96 -211 -177 -24 -49 -24 -49 -24 -394 l0
-345 27 -51 c35 -67 115 -138 181 -161 46 -16 88 -18 372 -18 310 0 322 1 368
22 70 33 140 103 173 176 l29 62 0 315 c0 307 -1 316 -23 373 -28 69 -98 143
-168 178 -49 24 -52 24 -374 26 -179 1 -336 -2 -350 -6z"/>
</g>
</svg>
